<mxfile host="app.diagrams.net" agent="Mozilla/5.0 (Windows NT 10.0; Win64; x64) AppleWebKit/537.36 (KHTML, like Gecko) Chrome/131.0.0.0 Safari/537.36" version="25.0.3">
  <diagram name="Страница — 1" id="OPw6BQCWtjEl8Fe08-i5">
    <mxGraphModel grid="0" page="0" gridSize="10" guides="1" tooltips="1" connect="1" arrows="1" fold="1" pageScale="1" pageWidth="827" pageHeight="1169" math="0" shadow="0">
      <root>
        <mxCell id="0" />
        <mxCell id="1" parent="0" />
        <mxCell id="tk8Ty3tV2xWSpdisI31R-1" value="Менеджер проектов" style="shape=umlActor;verticalLabelPosition=bottom;verticalAlign=top;html=1;outlineConnect=0;" vertex="1" parent="1">
          <mxGeometry x="330" y="842" width="30" height="60" as="geometry" />
        </mxCell>
        <mxCell id="tk8Ty3tV2xWSpdisI31R-15" style="edgeStyle=orthogonalEdgeStyle;rounded=0;orthogonalLoop=1;jettySize=auto;html=1;exitX=1;exitY=0.5;exitDx=0;exitDy=0;entryX=0;entryY=0.5;entryDx=0;entryDy=0;" edge="1" parent="1" source="tk8Ty3tV2xWSpdisI31R-2" target="tk8Ty3tV2xWSpdisI31R-14">
          <mxGeometry relative="1" as="geometry" />
        </mxCell>
        <mxCell id="tk8Ty3tV2xWSpdisI31R-17" value="&amp;lt;&amp;lt;include&amp;gt;&amp;gt;" style="edgeLabel;html=1;align=center;verticalAlign=middle;resizable=0;points=[];" connectable="0" vertex="1" parent="tk8Ty3tV2xWSpdisI31R-15">
          <mxGeometry x="-0.1368" y="-1" relative="1" as="geometry">
            <mxPoint as="offset" />
          </mxGeometry>
        </mxCell>
        <mxCell id="tk8Ty3tV2xWSpdisI31R-2" value="Создание и управление проектом" style="rounded=1;whiteSpace=wrap;html=1;arcSize=50;" vertex="1" parent="1">
          <mxGeometry x="445" y="861" width="120" height="60" as="geometry" />
        </mxCell>
        <mxCell id="tk8Ty3tV2xWSpdisI31R-3" value="Мониторинг статуса проекта" style="rounded=1;whiteSpace=wrap;html=1;arcSize=50;" vertex="1" parent="1">
          <mxGeometry x="449" y="776" width="120" height="60" as="geometry" />
        </mxCell>
        <mxCell id="tk8Ty3tV2xWSpdisI31R-7" style="edgeStyle=orthogonalEdgeStyle;rounded=0;orthogonalLoop=1;jettySize=auto;html=1;" edge="1" parent="1" source="tk8Ty3tV2xWSpdisI31R-4" target="tk8Ty3tV2xWSpdisI31R-6">
          <mxGeometry relative="1" as="geometry" />
        </mxCell>
        <mxCell id="tk8Ty3tV2xWSpdisI31R-8" value="&amp;lt;&amp;lt;include&amp;gt;&amp;gt;" style="edgeLabel;html=1;align=center;verticalAlign=middle;resizable=0;points=[];" connectable="0" vertex="1" parent="tk8Ty3tV2xWSpdisI31R-7">
          <mxGeometry x="-0.1014" y="1" relative="1" as="geometry">
            <mxPoint as="offset" />
          </mxGeometry>
        </mxCell>
        <mxCell id="tk8Ty3tV2xWSpdisI31R-4" value="Распределение задач" style="rounded=1;whiteSpace=wrap;html=1;arcSize=50;" vertex="1" parent="1">
          <mxGeometry x="449" y="946" width="120" height="60" as="geometry" />
        </mxCell>
        <mxCell id="tk8Ty3tV2xWSpdisI31R-6" value="Управление задачами" style="rounded=1;whiteSpace=wrap;html=1;arcSize=50;" vertex="1" parent="1">
          <mxGeometry x="660" y="946" width="120" height="60" as="geometry" />
        </mxCell>
        <mxCell id="tk8Ty3tV2xWSpdisI31R-10" value="Разработчик" style="shape=umlActor;verticalLabelPosition=bottom;verticalAlign=top;html=1;outlineConnect=0;" vertex="1" parent="1">
          <mxGeometry x="330" y="1073" width="30" height="60" as="geometry" />
        </mxCell>
        <mxCell id="tk8Ty3tV2xWSpdisI31R-11" value="Реализация задач" style="rounded=1;whiteSpace=wrap;html=1;arcSize=50;" vertex="1" parent="1">
          <mxGeometry x="449" y="1073" width="120" height="60" as="geometry" />
        </mxCell>
        <mxCell id="tk8Ty3tV2xWSpdisI31R-12" value="Аналитик" style="shape=umlActor;verticalLabelPosition=bottom;verticalAlign=top;html=1;outlineConnect=0;" vertex="1" parent="1">
          <mxGeometry x="1062" y="861" width="30" height="60" as="geometry" />
        </mxCell>
        <mxCell id="tk8Ty3tV2xWSpdisI31R-16" style="edgeStyle=orthogonalEdgeStyle;rounded=0;orthogonalLoop=1;jettySize=auto;html=1;exitX=0;exitY=0.5;exitDx=0;exitDy=0;" edge="1" parent="1" source="tk8Ty3tV2xWSpdisI31R-13" target="tk8Ty3tV2xWSpdisI31R-14">
          <mxGeometry relative="1" as="geometry" />
        </mxCell>
        <mxCell id="tk8Ty3tV2xWSpdisI31R-18" value="&amp;lt;&amp;lt;include&amp;gt;&amp;gt;" style="edgeLabel;html=1;align=center;verticalAlign=middle;resizable=0;points=[];" connectable="0" vertex="1" parent="tk8Ty3tV2xWSpdisI31R-16">
          <mxGeometry x="0.1852" relative="1" as="geometry">
            <mxPoint x="9" y="-2" as="offset" />
          </mxGeometry>
        </mxCell>
        <mxCell id="tk8Ty3tV2xWSpdisI31R-13" value="Анализ требований заказчика" style="rounded=1;whiteSpace=wrap;html=1;arcSize=50;" vertex="1" parent="1">
          <mxGeometry x="861" y="861" width="120" height="60" as="geometry" />
        </mxCell>
        <mxCell id="tk8Ty3tV2xWSpdisI31R-14" value="Планирование проекта" style="rounded=1;whiteSpace=wrap;html=1;arcSize=50;" vertex="1" parent="1">
          <mxGeometry x="660" y="861" width="120" height="60" as="geometry" />
        </mxCell>
        <mxCell id="tk8Ty3tV2xWSpdisI31R-19" value="Руководитель отдела качества" style="shape=umlActor;verticalLabelPosition=bottom;verticalAlign=top;html=1;outlineConnect=0;" vertex="1" parent="1">
          <mxGeometry x="1062" y="1073" width="30" height="60" as="geometry" />
        </mxCell>
        <mxCell id="tk8Ty3tV2xWSpdisI31R-23" style="edgeStyle=orthogonalEdgeStyle;rounded=0;orthogonalLoop=1;jettySize=auto;html=1;exitX=0;exitY=0.5;exitDx=0;exitDy=0;entryX=1;entryY=0.5;entryDx=0;entryDy=0;" edge="1" parent="1" source="tk8Ty3tV2xWSpdisI31R-21" target="tk8Ty3tV2xWSpdisI31R-22">
          <mxGeometry relative="1" as="geometry" />
        </mxCell>
        <mxCell id="tk8Ty3tV2xWSpdisI31R-24" value="&amp;lt;&amp;lt;include&amp;gt;&amp;gt;" style="edgeLabel;html=1;align=center;verticalAlign=middle;resizable=0;points=[];" connectable="0" vertex="1" parent="tk8Ty3tV2xWSpdisI31R-23">
          <mxGeometry x="0.16" y="-3" relative="1" as="geometry">
            <mxPoint x="12" as="offset" />
          </mxGeometry>
        </mxCell>
        <mxCell id="tk8Ty3tV2xWSpdisI31R-21" value="Контроль качества задачи" style="rounded=1;whiteSpace=wrap;html=1;arcSize=50;" vertex="1" parent="1">
          <mxGeometry x="861" y="1073" width="120" height="60" as="geometry" />
        </mxCell>
        <mxCell id="tk8Ty3tV2xWSpdisI31R-22" value="Подведение итогов и отчётность" style="rounded=1;whiteSpace=wrap;html=1;arcSize=50;" vertex="1" parent="1">
          <mxGeometry x="664" y="1073" width="120" height="60" as="geometry" />
        </mxCell>
        <mxCell id="tk8Ty3tV2xWSpdisI31R-25" value="" style="endArrow=classic;html=1;rounded=0;entryX=0;entryY=0.5;entryDx=0;entryDy=0;" edge="1" parent="1" source="tk8Ty3tV2xWSpdisI31R-10" target="tk8Ty3tV2xWSpdisI31R-11">
          <mxGeometry width="50" height="50" relative="1" as="geometry">
            <mxPoint x="321" y="1041" as="sourcePoint" />
            <mxPoint x="371" y="991" as="targetPoint" />
          </mxGeometry>
        </mxCell>
        <mxCell id="tk8Ty3tV2xWSpdisI31R-26" value="" style="endArrow=classic;html=1;rounded=0;entryX=0;entryY=0.5;entryDx=0;entryDy=0;" edge="1" parent="1" target="tk8Ty3tV2xWSpdisI31R-3">
          <mxGeometry width="50" height="50" relative="1" as="geometry">
            <mxPoint x="369" y="862" as="sourcePoint" />
            <mxPoint x="337" y="989" as="targetPoint" />
          </mxGeometry>
        </mxCell>
        <mxCell id="tk8Ty3tV2xWSpdisI31R-27" value="" style="endArrow=classic;html=1;rounded=0;entryX=0;entryY=0.5;entryDx=0;entryDy=0;" edge="1" parent="1" target="tk8Ty3tV2xWSpdisI31R-2">
          <mxGeometry width="50" height="50" relative="1" as="geometry">
            <mxPoint x="367" y="864" as="sourcePoint" />
            <mxPoint x="838" y="810" as="targetPoint" />
          </mxGeometry>
        </mxCell>
        <mxCell id="tk8Ty3tV2xWSpdisI31R-28" value="" style="endArrow=classic;html=1;rounded=0;entryX=0;entryY=0.5;entryDx=0;entryDy=0;" edge="1" parent="1" target="tk8Ty3tV2xWSpdisI31R-4">
          <mxGeometry width="50" height="50" relative="1" as="geometry">
            <mxPoint x="368" y="864" as="sourcePoint" />
            <mxPoint x="239" y="974" as="targetPoint" />
          </mxGeometry>
        </mxCell>
        <mxCell id="tk8Ty3tV2xWSpdisI31R-29" value="" style="endArrow=classic;html=1;rounded=0;entryX=1;entryY=0.5;entryDx=0;entryDy=0;" edge="1" parent="1" source="tk8Ty3tV2xWSpdisI31R-12" target="tk8Ty3tV2xWSpdisI31R-13">
          <mxGeometry width="50" height="50" relative="1" as="geometry">
            <mxPoint x="926" y="1020" as="sourcePoint" />
            <mxPoint x="976" y="970" as="targetPoint" />
          </mxGeometry>
        </mxCell>
        <mxCell id="tk8Ty3tV2xWSpdisI31R-30" value="" style="endArrow=classic;html=1;rounded=0;entryX=1;entryY=0.5;entryDx=0;entryDy=0;" edge="1" parent="1" source="tk8Ty3tV2xWSpdisI31R-19" target="tk8Ty3tV2xWSpdisI31R-21">
          <mxGeometry width="50" height="50" relative="1" as="geometry">
            <mxPoint x="1038" y="1042" as="sourcePoint" />
            <mxPoint x="1088" y="992" as="targetPoint" />
          </mxGeometry>
        </mxCell>
      </root>
    </mxGraphModel>
  </diagram>
</mxfile>
